<svg width="303" height="306" xmlns="http://www.w3.org/2000/svg">
 <metadata id="metadata8">image/svg+xml</metadata>
 <defs>
  <clipPath clipPathUnits="userSpaceOnUse" id="clipPath28">
   <path d="m-46.778999,892.361588l595.28,0l0,-841.89l-595.28,0l0,841.89z" id="path26"/>
  </clipPath>
 </defs>
 <g>
  <title>Layer 1</title>
  <g id="g10" transform="matrix(1.3333333,0,0,-1.3333333,0,1122.52) ">
   <g id="g22">
    <g id="g24" clip-path="url(#clipPath28);">
     <g id="g54">
      <path fill="#231f20" fill-rule="nonzero" d="m227.01101,727.139069c0,-62.621 -50.765,-113.385 -113.386,-113.385c-62.621,0 -113.386,50.764 -113.386,113.385c0,62.622 50.765,113.387 113.386,113.387c62.621,0 113.386,-50.765 113.386,-113.387" id="path56"/>
     </g>
     <g id="g58">
      <path fill="#ffffff" fill-rule="nonzero" d="m152.690194,797.458405l-113.828,-43.649l7.352,-17.686l111.093,50.23l-4.617,11.105z" id="path60"/>
     </g>
     <g id="g62">
      <path fill="#ffffff" fill-rule="nonzero" d="m122.164407,813.188874l13.22,5.495l27.072,-56.47l-20.096,-8.353l-20.196,59.328z" id="path64"/>
     </g>
     <g id="g66">
      <path fill="#ffffff" fill-rule="evenodd" d="m202.300606,726.231903c0.886,-3.302 -2.174,-11.104 -6.072,-11.484c-18.137,-1.822 -36.686,-5.966 -48.478,-17.07c-5.123,-4.823 -8.759,-14.497 -4.435,-24.165c4.565,-10.209 13.063,-13.268 23.898,-18.823c-0.522,-3.655 0,0 -0.51,-11.093l-23.635,0.534c-12.787,15.4 -35.845,16.467 -51.037,-0.364c-7.397,-0.054 -14.794,-0.105 -22.189,-0.159c0.185,3.992 0.367,7.982 0.552,11.974c14.169,4.627 34.6,20.363 21.854,31.689c-6.42,5.707 -17.065,3.928 -27.534,5.589c-6.643,1.055 -12.465,3.381 -18.938,6.201c-11.164,4.864 -20.216,10.594 -24.98,19.537c21.232,-0.553 41.57,0.153 62.439,0.447c0.055,3.873 -0.047,0.291 0.055,3.873c1.41,0.053 8.886,0.284 9.395,0.331c0.107,0.814 0.053,2.133 0.053,2.133l109.562,0.85z" id="path68"/>
     </g>
    </g>
   </g>
  </g>
 </g>
</svg>
