<?xml version="1.0" encoding="UTF-8" standalone="no"?>
<svg xmlns:dc="http://purl.org/dc/elements/1.1/" xmlns:cc="http://creativecommons.org/ns#" xmlns:rdf="http://www.w3.org/1999/02/22-rdf-syntax-ns#" xmlns:svg="http://www.w3.org/2000/svg" xmlns="http://www.w3.org/2000/svg" viewBox="0 0 793.70667 1122.52" height="1122.52" width="793.70667" xml:space="preserve" id="svg2" version="1.1">
    <metadata id="metadata8">
        <rdf:RDF>
            <cc:Work rdf:about="">
                <dc:format>image/svg+xml</dc:format>
                <dc:type rdf:resource="http://purl.org/dc/dcmitype/StillImage" />
            </cc:Work>
        </rdf:RDF>
    </metadata>
    <defs id="defs6">
        <clipPath id="clipPath28" clipPathUnits="userSpaceOnUse">
            <path id="path26" d="M 0,841.89 H 595.28 V 0 H 0 Z" />
        </clipPath>
    </defs>
    <g transform="matrix(1.3333333,0,0,-1.3333333,0,1122.52)" id="g10">
        <path id="path12" style="fill:#ffffff;fill-opacity:1;fill-rule:nonzero;stroke:none" d="M 566.823,270.604 H 10.351 v 556.472 h 556.472 z" />
        <g transform="translate(455.415,489.3643)" id="g14">
            <path id="path16" style="fill:#231f20;fill-opacity:1;fill-rule:nonzero;stroke:none" d="m 0,0 -108.501,-41.606 7.007,-16.859 105.895,47.879 z" />
        </g>
        <g transform="translate(426.3184,504.3584)" id="g18">
            <path id="path20" style="fill:#231f20;fill-opacity:1;fill-rule:nonzero;stroke:none" d="M 0,0 12.602,5.238 38.405,-48.589 19.251,-56.552 Z" />
        </g>
        <g id="g22">
            <g clip-path="url(#clipPath28)" id="g24">
                <g transform="translate(502.7051,421.4707)" id="g30">
                    <path id="path32" style="fill:#231f20;fill-opacity:1;fill-rule:evenodd;stroke:none" d="m 0,0 c 0.844,-3.147 -2.072,-10.586 -5.788,-10.948 -17.288,-1.737 -34.97,-5.687 -46.211,-16.271 -4.883,-4.597 -8.349,-13.818 -4.228,-23.034 4.353,-9.731 12.454,-12.647 22.782,-17.942 -0.499,-3.485 0,0 -0.488,-10.575 l -22.529,0.51 c -12.187,14.679 -34.166,15.697 -48.648,-0.347 -7.051,-0.051 -14.101,-0.101 -21.151,-0.152 0.176,3.805 0.35,7.609 0.527,11.413 13.505,4.41 32.981,19.41 20.831,30.207 -6.119,5.44 -16.267,3.743 -26.245,5.327 -6.333,1.005 -11.882,3.223 -18.052,5.912 -10.643,4.636 -19.271,10.097 -23.813,18.623 20.24,-0.528 39.625,0.144 59.518,0.424 0.053,3.693 -0.045,0.279 0.053,3.693 1.344,0.052 8.47,0.27 8.956,0.316 0.101,0.777 0.049,2.034 0.049,2.034 z" />
                </g>
                <g transform="translate(417.5215,521.9131)" id="g34">
                    <path id="path36" style="fill:#231f20;fill-opacity:1;fill-rule:nonzero;stroke:none" d="m 0,0 c -55.638,0 -100.902,-45.265 -100.902,-100.902 0,-55.64 45.264,-100.904 100.902,-100.904 55.638,0 100.903,45.264 100.903,100.904 C 100.903,-45.265 55.638,0 0,0 m 0,-214.289 c -62.52,0 -113.386,50.864 -113.386,113.387 0,62.52 50.866,113.385 113.386,113.385 62.521,0 113.386,-50.865 113.386,-113.385 0,-62.523 -50.865,-113.387 -113.386,-113.387" />
                </g>
                <g transform="translate(197.5479,489.3643)" id="g38">
                    <path id="path40" style="fill:#1075bd;fill-opacity:1;fill-rule:nonzero;stroke:none" d="m 0,0 -108.501,-41.606 7.007,-16.859 105.895,47.879 z" />
                </g>
                <g transform="translate(168.4507,504.3584)" id="g42">
                    <path id="path44" style="fill:#1075bd;fill-opacity:1;fill-rule:nonzero;stroke:none" d="M 0,0 12.602,5.238 38.405,-48.589 19.25,-56.552 Z" />
                </g>
                <g transform="translate(244.8369,421.4707)" id="g46">
                    <path id="path48" style="fill:#1075bd;fill-opacity:1;fill-rule:evenodd;stroke:none" d="m 0,0 c 0.845,-3.147 -2.072,-10.586 -5.788,-10.948 -17.288,-1.737 -34.969,-5.687 -46.21,-16.271 -4.883,-4.597 -8.349,-13.818 -4.228,-23.034 4.352,-9.731 12.453,-12.647 22.781,-17.942 -0.499,-3.485 0,0 -0.487,-10.575 l -22.529,0.51 c -12.188,14.679 -34.167,15.697 -48.649,-0.347 -7.05,-0.051 -14.1,-0.101 -21.151,-0.152 0.177,3.805 0.35,7.609 0.527,11.413 13.505,4.41 32.981,19.41 20.832,30.207 -6.12,5.44 -16.267,3.743 -26.246,5.327 -6.333,1.005 -11.882,3.223 -18.052,5.912 -10.642,4.636 -19.27,10.097 -23.812,18.623 20.239,-0.528 39.625,0.144 59.517,0.424 0.053,3.693 -0.045,0.279 0.053,3.693 1.344,0.052 8.471,0.27 8.956,0.316 0.102,0.777 0.05,2.034 0.05,2.034 z" />
                </g>
                <g transform="translate(159.6538,521.9131)" id="g50">
                    <path id="path52" style="fill:#1075bd;fill-opacity:1;fill-rule:nonzero;stroke:none" d="m 0,0 c -55.638,0 -100.902,-45.265 -100.902,-100.902 0,-55.64 45.264,-100.904 100.902,-100.904 55.638,0 100.903,45.264 100.903,100.904 C 100.903,-45.265 55.638,0 0,0 m 0,-214.289 c -62.52,0 -113.385,50.864 -113.385,113.387 0,62.52 50.865,113.385 113.385,113.385 62.521,0 113.385,-50.865 113.385,-113.385 0,-62.523 -50.864,-113.387 -113.385,-113.387" />
                </g>
                <g transform="translate(273.04,676.6675)" id="g54">
                    <path id="path56" style="fill:#231f20;fill-opacity:1;fill-rule:nonzero;stroke:none" d="m 0,0 c 0,-62.621 -50.765,-113.385 -113.386,-113.385 -62.621,0 -113.386,50.764 -113.386,113.385 0,62.622 50.765,113.387 113.386,113.387 C -50.765,113.387 0,62.622 0,0" />
                </g>
                <g transform="translate(198.7192,746.9868)" id="g58">
                    <path id="path60" style="fill:#ffffff;fill-opacity:1;fill-rule:nonzero;stroke:none" d="m 0,0 -113.828,-43.649 7.352,-17.686 111.093,50.23 z" />
                </g>
                <g transform="translate(168.1934,762.7173)" id="g62">
                    <path id="path64" style="fill:#ffffff;fill-opacity:1;fill-rule:nonzero;stroke:none" d="m 0,0 13.22,5.495 27.072,-56.47 -20.096,-8.353 z" />
                </g>
                <g transform="translate(248.3296,675.7603)" id="g66">
                    <path id="path68" style="fill:#ffffff;fill-opacity:1;fill-rule:evenodd;stroke:none" d="m 0,0 c 0.886,-3.302 -2.174,-11.104 -6.072,-11.484 -18.137,-1.822 -36.686,-5.966 -48.478,-17.07 -5.123,-4.823 -8.759,-14.497 -4.435,-24.165 4.565,-10.209 13.063,-13.268 23.898,-18.823 -0.522,-3.655 0,0 -0.51,-11.093 l -23.635,0.534 c -12.787,15.4 -35.845,16.467 -51.037,-0.364 -7.397,-0.054 -14.794,-0.105 -22.189,-0.159 0.185,3.992 0.367,7.982 0.552,11.974 14.169,4.627 34.6,20.363 21.854,31.689 -6.42,5.707 -17.065,3.928 -27.534,5.589 -6.643,1.055 -12.465,3.381 -18.938,6.201 -11.164,4.864 -20.216,10.594 -24.98,19.537 21.232,-0.553 41.57,0.153 62.439,0.447 0.055,3.873 -0.047,0.291 0.055,3.873 1.41,0.053 8.886,0.284 9.395,0.331 0.107,0.814 0.053,2.133 0.053,2.133 z" />
                </g>
                <g transform="translate(530.9072,676.6675)" id="g70">
                    <path id="path72" style="fill:#f1592b;fill-opacity:1;fill-rule:nonzero;stroke:none" d="m 0,0 c 0,-62.621 -50.764,-113.385 -113.386,-113.385 -62.621,0 -113.385,50.764 -113.385,113.385 0,62.622 50.764,113.387 113.385,113.387 C -50.764,113.387 0,62.622 0,0" />
                </g>
                <g transform="translate(458.5869,749.9868)" id="g74">
                    <path id="path76" style="fill:#ffffff;fill-opacity:1;fill-rule:nonzero;stroke:none" d="m 0,0 -113.828,-43.649 7.351,-17.686 111.093,50.23 z" />
                </g>
                <g transform="translate(428.0605,765.7173)" id="g78">
                    <path id="path80" style="fill:#ffffff;fill-opacity:1;fill-rule:nonzero;stroke:none" d="m 0,0 13.22,5.495 27.072,-56.47 -20.096,-8.353 z" />
                </g>
                <g transform="translate(508.1963,678.7603)" id="g82">
                    <path id="path84" style="fill:#ffffff;fill-opacity:1;fill-rule:evenodd;stroke:none" d="m 0,0 c 0.887,-3.302 -2.174,-11.104 -6.072,-11.484 -18.137,-1.822 -36.686,-5.966 -48.478,-17.07 -5.122,-4.823 -8.759,-14.497 -4.434,-24.165 4.564,-10.209 13.062,-13.268 23.898,-18.823 -0.523,-3.655 0,0 -0.511,-11.093 l -23.635,0.534 c -12.787,15.4 -35.844,16.467 -51.037,-0.364 -7.396,-0.054 -14.794,-0.105 -22.189,-0.159 0.186,3.992 0.368,7.982 0.552,11.974 14.17,4.627 34.601,20.363 21.855,31.689 -6.421,5.707 -17.065,3.928 -27.535,5.589 -6.643,1.055 -12.465,3.381 -18.937,6.201 -11.164,4.864 -20.217,10.594 -24.981,19.537 21.233,-0.553 41.57,0.153 62.44,0.447 0.054,3.873 -0.047,0.291 0.054,3.873 1.41,0.053 8.887,0.284 9.395,0.331 0.107,0.814 0.053,2.133 0.053,2.133 z" />
                </g>
            </g>
        </g>
    </g>
</svg>
